G04 #@! TF.GenerationSoftware,KiCad,Pcbnew,9.0.7*
G04 #@! TF.CreationDate,2026-01-22T10:41:05+02:00*
G04 #@! TF.ProjectId,project1,70726f6a-6563-4743-912e-6b696361645f,rev?*
G04 #@! TF.SameCoordinates,Original*
G04 #@! TF.FileFunction,Copper,L1,Top*
G04 #@! TF.FilePolarity,Positive*
%FSLAX46Y46*%
G04 Gerber Fmt 4.6, Leading zero omitted, Abs format (unit mm)*
G04 Created by KiCad (PCBNEW 9.0.7) date 2026-01-22 10:41:05*
%MOMM*%
%LPD*%
G01*
G04 APERTURE LIST*
G04 Aperture macros list*
%AMRoundRect*
0 Rectangle with rounded corners*
0 $1 Rounding radius*
0 $2 $3 $4 $5 $6 $7 $8 $9 X,Y pos of 4 corners*
0 Add a 4 corners polygon primitive as box body*
4,1,4,$2,$3,$4,$5,$6,$7,$8,$9,$2,$3,0*
0 Add four circle primitives for the rounded corners*
1,1,$1+$1,$2,$3*
1,1,$1+$1,$4,$5*
1,1,$1+$1,$6,$7*
1,1,$1+$1,$8,$9*
0 Add four rect primitives between the rounded corners*
20,1,$1+$1,$2,$3,$4,$5,0*
20,1,$1+$1,$4,$5,$6,$7,0*
20,1,$1+$1,$6,$7,$8,$9,0*
20,1,$1+$1,$8,$9,$2,$3,0*%
G04 Aperture macros list end*
G04 #@! TA.AperFunction,ComponentPad*
%ADD10C,1.800000*%
G04 #@! TD*
G04 #@! TA.AperFunction,ComponentPad*
%ADD11R,1.800000X1.800000*%
G04 #@! TD*
G04 #@! TA.AperFunction,ComponentPad*
%ADD12C,1.600000*%
G04 #@! TD*
G04 #@! TA.AperFunction,ComponentPad*
%ADD13RoundRect,0.250000X-0.550000X-0.550000X0.550000X-0.550000X0.550000X0.550000X-0.550000X0.550000X0*%
G04 #@! TD*
G04 #@! TA.AperFunction,ComponentPad*
%ADD14C,1.700000*%
G04 #@! TD*
G04 #@! TA.AperFunction,ComponentPad*
%ADD15C,1.350000*%
G04 #@! TD*
G04 #@! TA.AperFunction,ComponentPad*
%ADD16R,1.350000X1.350000*%
G04 #@! TD*
G04 #@! TA.AperFunction,SMDPad,CuDef*
%ADD17R,2.200000X1.600000*%
G04 #@! TD*
G04 #@! TA.AperFunction,Conductor*
%ADD18C,0.200000*%
G04 #@! TD*
G04 APERTURE END LIST*
D10*
G04 #@! TO.P,D1,2,A*
G04 #@! TO.N,GND*
X118000000Y-107500000D03*
D11*
G04 #@! TO.P,D1,1,K*
G04 #@! TO.N,Net-(D1-K)*
X115460000Y-107500000D03*
G04 #@! TD*
D12*
G04 #@! TO.P,R1,2*
G04 #@! TO.N,Net-(D1-K)*
X123810000Y-100000000D03*
G04 #@! TO.P,R1,1*
G04 #@! TO.N,Net-(U1-AREF{slash}PB0)*
X116190000Y-100000000D03*
G04 #@! TD*
G04 #@! TO.P,U1,8,VCC*
G04 #@! TO.N,+5V*
X120315000Y-83690000D03*
G04 #@! TO.P,U1,7,PB2*
G04 #@! TO.N,Net-(U1-PB2)*
X120315000Y-86230000D03*
G04 #@! TO.P,U1,6,PB1*
G04 #@! TO.N,Net-(J1-SCK)*
X120315000Y-88770000D03*
G04 #@! TO.P,U1,5,AREF/PB0*
G04 #@! TO.N,Net-(U1-AREF{slash}PB0)*
X120315000Y-91310000D03*
G04 #@! TO.P,U1,4,GND*
G04 #@! TO.N,GND*
X112695000Y-91310000D03*
G04 #@! TO.P,U1,3,XTAL2/PB4*
G04 #@! TO.N,Net-(J1-MISO)*
X112695000Y-88770000D03*
G04 #@! TO.P,U1,2,XTAL1/PB3*
G04 #@! TO.N,Net-(J1-MOSI)*
X112695000Y-86230000D03*
D13*
G04 #@! TO.P,U1,1,~{RESET}/PB5*
G04 #@! TO.N,Net-(J1-~{RST})*
X112695000Y-83690000D03*
G04 #@! TD*
D14*
G04 #@! TO.P,SW1,2,2*
G04 #@! TO.N,GND*
X136250000Y-87250000D03*
X129750000Y-87250000D03*
G04 #@! TO.P,SW1,1,1*
G04 #@! TO.N,Net-(U1-PB2)*
X136250000Y-82750000D03*
X129750000Y-82750000D03*
G04 #@! TD*
D15*
G04 #@! TO.P,J1,6,GND*
G04 #@! TO.N,GND*
X134500000Y-98500000D03*
G04 #@! TO.P,J1,5,~{RST}*
G04 #@! TO.N,Net-(J1-~{RST})*
X132500000Y-98500000D03*
G04 #@! TO.P,J1,4,MOSI*
G04 #@! TO.N,Net-(J1-MOSI)*
X134500000Y-96500000D03*
G04 #@! TO.P,J1,3,SCK*
G04 #@! TO.N,Net-(J1-SCK)*
X132500000Y-96500000D03*
G04 #@! TO.P,J1,2,VCC*
G04 #@! TO.N,+5V*
X134500000Y-94500000D03*
D16*
G04 #@! TO.P,J1,1,MISO*
G04 #@! TO.N,Net-(J1-MISO)*
X132500000Y-94500000D03*
G04 #@! TD*
D17*
G04 #@! TO.P,C1,2*
G04 #@! TO.N,GND*
X131000000Y-106000000D03*
G04 #@! TO.P,C1,1*
G04 #@! TO.N,+5V*
X128000000Y-106000000D03*
G04 #@! TD*
D18*
G04 #@! TO.N,Net-(J1-MISO)*
X133476000Y-96095727D02*
X132500000Y-95119727D01*
X132904273Y-97476000D02*
X133476000Y-96904273D01*
X132095727Y-97476000D02*
X132904273Y-97476000D01*
X133476000Y-96904273D02*
X133476000Y-96095727D01*
X124490727Y-89871000D02*
X132095727Y-97476000D01*
X113796000Y-89871000D02*
X124490727Y-89871000D01*
X132500000Y-95119727D02*
X132500000Y-94500000D01*
X112695000Y-88770000D02*
X113796000Y-89871000D01*
G04 #@! TO.N,+5V*
X135476000Y-95476000D02*
X134500000Y-94500000D01*
X133524000Y-98908900D02*
X133524000Y-98047727D01*
X134904273Y-97476000D02*
X135476000Y-96904273D01*
X135476000Y-96904273D02*
X135476000Y-95476000D01*
X128000000Y-104432900D02*
X133524000Y-98908900D01*
X133524000Y-98047727D02*
X134095727Y-97476000D01*
X134095727Y-97476000D02*
X134904273Y-97476000D01*
X128000000Y-106000000D02*
X128000000Y-104432900D01*
G04 #@! TO.N,Net-(J1-MOSI)*
X127974140Y-87669000D02*
X133524000Y-93218860D01*
X133524000Y-95524000D02*
X134500000Y-96500000D01*
X114134000Y-87669000D02*
X127974140Y-87669000D01*
X112695000Y-86230000D02*
X114134000Y-87669000D01*
X133524000Y-93218860D02*
X133524000Y-95524000D01*
G04 #@! TO.N,Net-(J1-SCK)*
X124770000Y-88770000D02*
X132500000Y-96500000D01*
X120315000Y-88770000D02*
X124770000Y-88770000D01*
G04 #@! TO.N,+5V*
X134500000Y-93627760D02*
X134500000Y-94500000D01*
X128599000Y-87726760D02*
X134500000Y-93627760D01*
X128599000Y-86773240D02*
X128599000Y-87726760D01*
X129273240Y-86099000D02*
X128599000Y-86773240D01*
X134528760Y-86099000D02*
X129273240Y-86099000D01*
X137401000Y-83226760D02*
X134528760Y-86099000D01*
X137401000Y-82273240D02*
X137401000Y-83226760D01*
X136726760Y-81599000D02*
X137401000Y-82273240D01*
X122406000Y-81599000D02*
X136726760Y-81599000D01*
X120315000Y-83690000D02*
X122406000Y-81599000D01*
G04 #@! TO.N,Net-(J1-~{RST})*
X119500000Y-98500000D02*
X132500000Y-98500000D01*
X116899000Y-101101000D02*
X119500000Y-98500000D01*
X115733950Y-101101000D02*
X116899000Y-101101000D01*
X115089000Y-100456050D02*
X115733950Y-101101000D01*
X115089000Y-91808950D02*
X115089000Y-100456050D01*
X113151050Y-89871000D02*
X115089000Y-91808950D01*
X112238950Y-89871000D02*
X113151050Y-89871000D01*
X111594000Y-89226050D02*
X112238950Y-89871000D01*
X111594000Y-84791000D02*
X111594000Y-89226050D01*
X112695000Y-83690000D02*
X111594000Y-84791000D01*
G04 #@! TO.N,GND*
X114259000Y-108701000D02*
X116799000Y-108701000D01*
X112695000Y-107137000D02*
X114259000Y-108701000D01*
X116799000Y-108701000D02*
X118000000Y-107500000D01*
X112695000Y-91310000D02*
X112695000Y-107137000D01*
G04 #@! TO.N,Net-(U1-AREF{slash}PB0)*
X116190000Y-95435000D02*
X120315000Y-91310000D01*
X116190000Y-100000000D02*
X116190000Y-95435000D01*
G04 #@! TO.N,Net-(D1-K)*
X122960000Y-100000000D02*
X123810000Y-100000000D01*
X115460000Y-107500000D02*
X122960000Y-100000000D01*
G04 #@! TO.N,GND*
X129500000Y-107500000D02*
X131000000Y-106000000D01*
X118000000Y-107500000D02*
X129500000Y-107500000D01*
X134500000Y-98500000D02*
X131000000Y-102000000D01*
X131000000Y-102000000D02*
X131000000Y-106000000D01*
X136250000Y-87250000D02*
X136250000Y-96750000D01*
X136250000Y-96750000D02*
X134500000Y-98500000D01*
X129750000Y-87250000D02*
X136250000Y-87250000D01*
G04 #@! TO.N,Net-(U1-PB2)*
X129750000Y-82750000D02*
X136250000Y-82750000D01*
X126270000Y-86230000D02*
X120315000Y-86230000D01*
X129750000Y-82750000D02*
X126270000Y-86230000D01*
G04 #@! TD*
M02*
