M48
; DRILL file {KiCad 9.0.7} date 2026-01-22T11:14:26+0200
; FORMAT={-:-/ absolute / metric / decimal}
; #@! TF.CreationDate,2026-01-22T11:14:26+02:00
; #@! TF.GenerationSoftware,Kicad,Pcbnew,9.0.7
; #@! TF.FileFunction,Plated,1,2,PTH
FMAT,2
METRIC
; #@! TA.AperFunction,Plated,PTH,ComponentDrill
T1C0.800
; #@! TA.AperFunction,Plated,PTH,ComponentDrill
T2C0.900
; #@! TA.AperFunction,Plated,PTH,ComponentDrill
T3C1.000
%
G90
G05
T1
X19.402Y37.483
X19.402Y34.944
X19.402Y32.404
X19.402Y29.863
X22.897Y21.174
X27.022Y37.483
X27.022Y34.944
X27.022Y32.404
X27.022Y29.863
X30.517Y21.174
X39.207Y26.673
X39.207Y24.674
X39.207Y22.674
X41.207Y26.673
X41.207Y24.674
X41.207Y22.674
T2
X22.167Y13.673
X24.707Y13.673
T3
X36.457Y38.423
X36.457Y33.923
X42.957Y38.423
X42.957Y33.923
M30
